<?xml version="1.0" encoding="UTF-8"?>
<svg width="24px" height="24px" viewBox="0 0 24 24" version="1.1" xmlns="http://www.w3.org/2000/svg" xmlns:xlink="http://www.w3.org/1999/xlink">
    <!-- Generator: Sketch 50.2 (55047) - http://www.bohemiancoding.com/sketch -->
    <title>indesign</title>
    <desc>Created with Sketch.</desc>
    <defs></defs>
    <g id="indesign" stroke="none" stroke-width="1" fill="none" fill-rule="evenodd">
        <path d="M19.0000997,7.95245109 L12.8669581,14.0997796 L12.7942927,14.1720695 C12.648962,14.3889392 12.430966,14.6780988 12.3583006,14.8949686 L10.9219369,19.5341091 C10.7766062,19.8232687 11.139933,20.1847183 11.4305944,20.0401384 L16.1368992,18.6540439 C16.3548953,18.5094641 16.6455567,18.3648842 16.8635528,18.1480145 C16.8635528,18.0757246 16.9362181,18.0757246 16.9362181,18.0757246 L19.0000997,16.0225067 L19.0000997,17.0177512 L19.0000997,21 C19.0000997,22.1045695 18.1046692,23 17.0000997,23 L3,23 C1.8954305,23 1,22.1045695 1,21 L1,3 C1,1.8954305 1.8954305,1 3,1 L17.0000997,1 C18.1046692,1 19.0000997,1.8954305 19.0000997,3 L19.0000997,7.95245109 Z M4.89539641,4.00004796 C4.34311166,4.00004796 3.89539641,4.44776321 3.89539641,5.00005288 C3.89539641,5.55233763 4.34311166,6.00005288 4.89539641,6.00005288 L14.9203654,6.00005288 C15.4726501,6.00005288 15.9203654,5.55233763 15.9203654,5.00004796 C15.9203654,4.44776321 15.4726501,4.00004796 14.9203654,4.00004796 L4.89539641,4.00004796 Z M4.89539641,9.00012789 C4.34311166,9.00012789 3.89539641,9.44784314 3.89539641,10.0001328 C3.89539641,10.5524176 4.34311166,11.0001328 4.89539641,11.0001328 L11.9203488,11.0001328 C12.4726335,11.0001328 12.9203488,10.5524176 12.9203488,10.0001279 C12.9203488,9.44784314 12.4726335,9.00012789 11.9203488,9.00012789 L4.89539641,9.00012789 Z M19.9145829,8.52401209 L22.4846419,11.0807921 L16.3807518,17.1531445 C16.3807518,17.1531445 16.3348579,17.1531445 16.3348579,17.1988013 C16.1971762,17.3357716 16.0136006,17.4270852 15.8759188,17.5183988 L12.3420878,18.9794159 C12.1585121,19.0707295 11.9290426,18.8424455 12.0208304,18.6598184 L13.4894355,15.1442459 C13.5353294,15.0072756 13.6730112,14.8246484 13.764799,14.6876781 L13.8106929,14.6420213 L19.9145829,8.52401209 Z M23.6319896,8.15875781 C24.0909287,8.66098244 24.1368226,9.43714779 23.6778835,9.89371564 L22.9894749,10.5785674 L20.4194159,8.02178745 L21.1078246,7.33693567 C21.5667637,6.88036782 22.3469602,6.88036782 22.8517932,7.38259246 L23.6319896,8.15875781 Z" id="Combined-Shape" fill="#5A5A5A"></path>
    </g>
</svg>