<svg xmlns="http://www.w3.org/2000/svg" xmlns:xlink="http://www.w3.org/1999/xlink" width="24" height="24">
  <defs>
    <path id="inprogress-a" d="M14.8892528,0.000671665369 C14.6521255,0.0231479869 14.4508328,0.188370906 14.3774086,0.420798226 L13.9586266,1.71936929 C13.8342077,1.78596816 13.7105976,1.8521637 13.5956824,1.92943257 L12.2834996,1.66207763 C12.0324878,1.61103505 11.7777494,1.73018631 11.6506739,1.95807534 L10.7572728,3.54309549 C10.6298181,3.76875487 10.6559818,4.05253533 10.8224168,4.24967115 L11.6785927,5.25224451 C11.6738947,5.33490337 11.6692867,5.41630641 11.6692867,5.50050222 C11.6692867,5.58469803 11.6738947,5.66610107 11.6785927,5.74875688 L10.8224168,6.75133024 C10.6559818,6.94846606 10.6298181,7.23224652 10.7572728,7.45790589 L11.6506739,9.04292605 C11.7777485,9.27081625 12.0324871,9.38996883 12.2834996,9.33892681 L13.5956824,9.07157188 C13.7105976,9.14883769 13.8342077,9.21503628 13.9586266,9.28163516 L14.3774086,10.5802001 C14.4580219,10.831579 14.687164,11.0011661 14.9450903,11.0003389 L16.7318925,11.0003389 C16.9898188,11.0011662 17.2189611,10.8315791 17.2995745,10.5802001 L17.7183562,9.28163516 C17.8427751,9.21503628 17.9663852,9.14883769 18.0813004,9.07157188 L19.3934831,9.33892681 C19.6444956,9.38996883 19.8992343,9.27081625 20.0263089,9.04292605 L20.91971,7.45790589 C21.0471647,7.23224659 21.0210012,6.94846612 20.8545662,6.75133024 L19.9983903,5.74875688 C20.0030883,5.66610107 20.0076963,5.58469803 20.0076963,5.50050222 C20.0076963,5.41630641 20.0030883,5.33490337 19.9983903,5.25224451 L20.8545662,4.24967115 C21.0210012,4.05253526 21.0471647,3.7687548 20.91971,3.54309549 L20.0263089,1.95807534 C19.8992334,1.73018631 19.644495,1.61103505 19.3934831,1.66207763 L18.0813004,1.92943257 C17.9663852,1.8521637 17.8427751,1.78596816 17.7183562,1.71936929 L17.2995745,0.420798226 C17.2189569,0.16942403 16.9898156,-0.000157392525 16.7318925,0.000671665369 L14.9450903,0.000671665369 C14.926488,-0.000223888456 14.9078551,-0.000223888456 14.8892528,0.000671665369 Z M15.3731785,1.22285691 L16.3038045,1.22285691 L16.6574424,2.31136469 C16.7113318,2.47938794 16.8335313,2.61521378 16.9924677,2.68374821 C17.2120208,2.77902652 17.42616,2.91137176 17.6252935,3.06568034 C17.7626503,3.1743391 17.939345,3.21617551 18.1092192,3.18026058 L19.2166641,2.95110009 L19.6819773,3.77225599 L18.9374763,4.64115188 C18.8235917,4.77112577 18.7693918,4.9449068 18.7885762,5.1185701 C18.8040892,5.24530229 18.8164942,5.36935475 18.8164942,5.50050222 C18.8164942,5.63164969 18.8040862,5.7556991 18.7885762,5.88243435 C18.7693927,6.05609662 18.8235925,6.22987636 18.9374763,6.3598495 L19.6819773,7.22874845 L19.2166641,8.0499013 L18.1092192,7.82074386 C17.939345,7.78482893 17.7626503,7.82666535 17.6252935,7.93532411 C17.42616,8.08963268 17.2120208,8.22197792 16.9924677,8.31725623 C16.8335313,8.38579066 16.7113318,8.52161651 16.6574424,8.68963975 L16.3038045,9.77814753 L15.3731785,9.77814753 L15.0195403,8.68963975 C14.965651,8.52161651 14.8434514,8.38579066 14.684515,8.31725623 C14.464962,8.22197792 14.2508231,8.08963268 14.0516892,7.93532411 C13.9143325,7.82666543 13.737638,7.78482902 13.5677638,7.82074386 L12.4603186,8.0499013 L11.9950055,7.22874845 L12.7395065,6.3598495 C12.8533903,6.22987636 12.9075901,6.05609662 12.8884066,5.88243435 C12.8728936,5.7556991 12.8604886,5.63164969 12.8604886,5.50050222 C12.8604886,5.36935475 12.8728936,5.24530229 12.8884066,5.1185701 C12.907591,4.9449068 12.8533911,4.77112577 12.7395065,4.64115188 L11.9950055,3.77225599 L12.4603186,2.95110009 L13.5677638,3.18026058 C13.737638,3.21617542 13.9143325,3.17433901 14.0516892,3.06568034 C14.2508231,2.91137176 14.464962,2.77902652 14.684515,2.68374821 C14.8434514,2.61521378 14.965651,2.47938794 15.0195403,2.31136469 L15.3731785,1.22285691 Z M15.8384914,3.66722435 C14.8516677,3.66722435 14.0516892,4.48801053 14.0516892,5.50050222 C14.0516892,6.51299391 14.8516677,7.33378009 15.8384914,7.33378009 C16.8253151,7.33378009 17.6252935,6.51299391 17.6252935,5.50050222 C17.6252935,4.48801053 16.8253151,3.66722435 15.8384914,3.66722435 Z M15.8384914,4.8894096 C16.167433,4.8894096 16.4340923,5.16300397 16.4340923,5.50050222 C16.4340923,5.83800047 16.167433,6.11159484 15.8384914,6.11159484 C15.5095497,6.11159484 15.2428908,5.83800047 15.2428908,5.50050222 C15.2428908,5.16300397 15.5095497,4.8894096 15.8384914,4.8894096 Z M5.35964143,7.94486966 C5.11761178,7.97028968 4.91497592,8.14417554 4.84779714,8.38409344 L4.39179031,10.007308 C4.08554756,10.1523124 3.79769239,10.3245113 3.52630811,10.5229085 L1.93493719,10.1123397 C1.67706155,10.0458059 1.40743723,10.1626959 1.27419282,10.3987918 L0.0829912853,12.5185218 C-0.0533731038,12.7550456 -0.0191039055,13.0558665 0.166747618,13.2537494 L1.29280541,14.4377158 C1.27376142,14.6131658 1.24627395,14.7832685 1.24627395,14.9724379 C1.24627395,15.1616073 1.27375992,15.3316489 1.29280541,15.5071294 L0.166747618,16.6911263 C-0.0191039055,16.8890093 -0.0533731038,17.1898302 0.0829912853,17.4263539 L1.27419282,19.546084 C1.40744436,19.7821705 1.67706707,19.8990499 1.93493719,19.8325117 L3.52630811,19.4219368 C3.79769239,19.6203339 4.08554756,19.792545 4.39179031,19.9375616 L4.84779714,21.560764 C4.92177045,21.8197002 5.15249473,21.99822 5.41547888,22 L7.79788196,22 C8.06086612,21.99822 8.2915904,21.8197002 8.3655637,21.560764 L8.82157054,19.9375616 C9.12781329,19.792545 9.41566816,19.6203339 9.68705274,19.4219368 L11.2784234,19.8325117 C11.5362936,19.8990501 11.8059165,19.7821706 11.939168,19.546084 L13.1303696,17.4263539 C13.2667339,17.1898302 13.2324648,16.8890093 13.0466132,16.6911263 L11.9205554,15.5071294 C11.9395994,15.3316489 11.9670869,15.1616073 11.9670869,14.9724379 C11.9670869,14.7832685 11.9396009,14.6131658 11.9205554,14.4377158 L13.0466132,13.2537494 C13.2324648,13.0558665 13.2667339,12.7550456 13.1303696,12.5185218 L11.939168,10.3987918 C11.8059236,10.1626958 11.5362991,10.0458057 11.2784234,10.1123397 L9.68705274,10.5229085 C9.41566816,10.3245113 9.12781329,10.1523124 8.82157054,10.007308 L8.3655637,8.38409344 C8.29158606,8.12516208 8.06086282,7.94664809 7.79788196,7.94486966 L5.41547888,7.94486966 C5.39687663,7.94397411 5.37824368,7.94397411 5.35964143,7.94486966 Z M5.86217942,9.16705491 L7.35118142,9.16705491 L7.7513505,10.5802001 C7.80203034,10.7630316 7.93273801,10.9112601 8.10498841,10.9812417 C8.51151269,11.1422694 8.89628488,11.3716194 9.23104591,11.6496137 C9.37749002,11.7698658 9.5705857,11.812321 9.75219678,11.764197 L11.1388296,11.4109138 L11.8740243,12.7190273 L10.8782543,13.7789076 C10.7474487,13.9183714 10.6887629,14.1131648 10.7200479,14.3040353 C10.7555607,14.5348213 10.7758854,14.7535074 10.7758854,14.9724379 C10.7758854,15.1913378 10.7555604,15.4100239 10.7200479,15.6408099 C10.688753,15.8316904 10.7474395,16.0264975 10.8782543,16.1659681 L11.8740243,17.2258484 L11.1388296,18.533962 L9.75219678,18.1806787 C9.5705857,18.1325548 9.37749002,18.17501 9.23104591,18.295262 C8.89628488,18.5732259 8.51151269,18.8026064 8.10498841,18.9636341 C7.93274488,19.0336094 7.80203841,19.1818252 7.7513505,19.3646451 L7.35118142,20.7778086 L5.86217942,20.7778086 L5.46201035,19.3646451 C5.41132243,19.1818252 5.28061596,19.0336094 5.10837243,18.9636341 C4.70184816,18.8026064 4.31707597,18.5732259 3.98231464,18.295262 C3.83587059,18.1750101 3.64277505,18.1325549 3.46116406,18.1806787 L2.07453128,18.533962 L1.33933657,17.2258484 L2.33510657,16.1659681 C2.46592132,16.0264975 2.52460786,15.8316904 2.49331294,15.6408099 C2.45779987,15.4100239 2.43747549,15.1913378 2.43747549,14.9724379 C2.43747549,14.7535074 2.45780047,14.5348213 2.49331294,14.3040353 C2.52459797,14.1131648 2.46591214,13.9183714 2.33510657,13.7789076 L1.33933657,12.7190273 L2.07453128,11.4109138 L3.46116406,11.764197 C3.64277505,11.8123209 3.83587059,11.7698657 3.98231464,11.6496137 C4.31707597,11.3716194 4.70184816,11.1422694 5.10837243,10.9812417 C5.28062283,10.9112601 5.4113305,10.7630316 5.46201035,10.5802001 L5.86217942,9.16705491 Z M6.60668042,12.2225302 C5.13349981,12.2225302 3.92647718,13.460916 3.92647718,14.9724379 C3.92647718,16.4839292 5.13349981,17.7223455 6.60668042,17.7223455 C8.07986133,17.7223455 9.28688366,16.4839292 9.28688366,14.9724379 C9.28688366,13.460916 8.07986133,12.2225302 6.60668042,12.2225302 Z M6.60668042,13.444691 C7.43608795,13.444691 8.09568212,14.1214659 8.09568212,14.9724379 C8.09568212,15.8234099 7.43608795,16.5001542 6.60668042,16.5001542 C5.77727289,16.5001542 5.11767872,15.8234099 5.11767872,14.9724379 C5.11767872,14.1214659 5.77727289,13.444691 6.60668042,13.444691 Z"/>
  </defs>
  <g fill="none" fill-rule="evenodd" transform="translate(1 1)">
    <mask id="inprogress-b" fill="#fff">
      <use xlink:href="#inprogress-a"/>
    </mask>
    <use fill="#959595" fill-rule="nonzero" xlink:href="#inprogress-a"/>
    <g fill="#5A5A5A" mask="url(#inprogress-b)">
      <rect width="35" height="35" transform="translate(-4 -2)"/>
    </g>
  </g>
</svg>
