<svg xmlns="http://www.w3.org/2000/svg" xmlns:xlink="http://www.w3.org/1999/xlink" width="24" height="24">
  <defs>
    <path id="menu-a" d="M6.55555556,13.1111111 C5.69644594,13.1111111 5,12.4146652 5,11.5555556 C5,10.6964459 5.69644594,10 6.55555556,10 C7.41466517,10 8.11111111,10.6964459 8.11111111,11.5555556 C8.11111111,12.4146652 7.41466517,13.1111111 6.55555556,13.1111111 Z M17.4444444,13.1111111 C16.5853348,13.1111111 15.8888889,12.4146652 15.8888889,11.5555556 C15.8888889,10.6964459 16.5853348,10 17.4444444,10 C18.3035541,10 19,10.6964459 19,11.5555556 C19,12.4146652 18.3035541,13.1111111 17.4444444,13.1111111 Z M12,13.1111111 C11.1408904,13.1111111 10.4444444,12.4146652 10.4444444,11.5555556 C10.4444444,10.6964459 11.1408904,10 12,10 C12.8591096,10 13.5555556,10.6964459 13.5555556,11.5555556 C13.5555556,12.4146652 12.8591096,13.1111111 12,13.1111111 Z"/>
  </defs>
  <g fill="none" fill-rule="evenodd">
    <use fill="#000" transform="rotate(90 12 11.556)" xlink:href="#menu-a"/>
  </g>
</svg>
