<svg xmlns="http://www.w3.org/2000/svg" xmlns:xlink="http://www.w3.org/1999/xlink" width="24" height="24">
  <defs>
    <path id="pause-a" d="M12,21 C7,21 3,17 3,12 C3,7 7,3 12,3 C17,3 21,7 21,12 C21,17 17,21 12,21 M12,1 C18.1,1 23,5.9 23,12 C23,18.101 18.1,23 12,23 C5.9,23 1,18.101 1,12 C1,5.9 5.9,1 12,1 Z M13.9580566,7.47058824 C13.4173947,7.47058824 12.9791016,7.90888135 12.9791016,8.44954331 L12.9791016,15.5504567 C12.9791016,16.0911186 13.4173947,16.5294118 13.9580566,16.5294118 C14.4987186,16.5294118 14.9370117,16.0911186 14.9370117,15.5504567 L14.9370117,8.44954331 C14.9370117,7.90888135 14.4987186,7.47058824 13.9580566,7.47058824 Z M10.0211914,7.47058824 C9.48052945,7.47058824 9.04223633,7.90888135 9.04223633,8.44954331 L9.04223633,15.5504567 C9.04223633,16.0911186 9.48052945,16.5294118 10.0211914,16.5294118 C10.5618534,16.5294118 11.0001465,16.0911186 11.0001465,15.5504567 L11.0001465,8.44954331 C11.0001465,7.90888135 10.5618534,7.47058824 10.0211914,7.47058824 Z"/>
  </defs>
  <g fill="none" fill-rule="evenodd">
    <mask id="pause-b" fill="#fff">
      <use xlink:href="#pause-a"/>
    </mask>
    <use fill="#191919" xlink:href="#pause-a"/>
    <g mask="url(#pause-b)">
      <rect width="35" height="35" fill="#5A5A5A" transform="translate(-5 -5)"/>
    </g>
  </g>
</svg>
