<svg xmlns="http://www.w3.org/2000/svg" xmlns:xlink="http://www.w3.org/1999/xlink" width="24" height="24">
  <defs>
    <path id="pending-a" d="M11,20 C6,20 2,16 2,11 C2,6 6,2 11,2 C16,2 20,6 20,11 C20,16 16,20 11,20 M11,0 C17.1,0 22,4.9 22,11 C22,17.1 17.1,22 11,22 C4.9,22 0,17.1 0,11 C0,4.9 4.9,0 11,0 Z M11.0488812,10.5380604 L7.75288116,6.34206037 C7.38888116,5.92506037 6.75588116,5.88406037 6.34188116,6.24806037 C5.92588116,6.61206037 5.88388116,7.24306037 6.24688116,7.65906037 L10.2468812,12.6590604 C10.4298812,12.8670604 10.6898812,12.9910604 10.9668812,13.0000604 C10.9778812,13.0010604 10.9888812,13.0010604 10.9998812,13.0010604 C11.2648812,13.0010604 11.5198812,12.8960604 11.7068812,12.7080604 L14.7068812,10.7080604 C15.0978812,10.3170604 15.0978812,9.68406037 14.7068812,9.29406037 C14.3158812,8.90306037 13.6838812,8.90306037 13.2928812,9.29406037 L11.0488812,10.5380604 Z"/>
  </defs>
  <g fill="none" fill-rule="evenodd" transform="translate(1 1)">
    <mask id="pending-b" fill="#fff">
      <use xlink:href="#pending-a"/>
    </mask>
    <use fill="#000" xlink:href="#pending-a"/>
    <g fill="#5A5A5A" mask="url(#pending-b)">
      <rect width="30" height="30" transform="translate(-2 -1)"/>
    </g>
  </g>
</svg>
