<?xml version="1.0" encoding="UTF-8"?>
<svg width="24px" height="24px" viewBox="0 0 24 24" version="1.1" xmlns="http://www.w3.org/2000/svg" xmlns:xlink="http://www.w3.org/1999/xlink">
<!-- Generator: Sketch 50.2 (55047) - http://www.bohemiancoding.com/sketch -->
<title>plus-circle </title>
<desc>Created with Sketch.</desc>
<defs>
  <path d="M12,1 C5.9,1 1,5.9 1,12 C1,18.1 5.9,23 12,23 C18.1,23 23,18.1 23,12 C23,5.9 18.1,1 12,1 M16,11 L13,11 L13,8 C13,7.4 12.6,7 12,7 C11.4,7 11,7.4 11,8 L11,11 L8,11 C7.4,11 7,11.4 7,12 C7,12.6 7.4,13 8,13 L11,13 L11,16 C11,16.6 11.4,17 12,17 C12.6,17 13,16.6 13,16 L13,13 L16,13 C16.6,13 17,12.6 17,12 C17,11.4 16.6,11 16,11" id="path-1"></path>
</defs>
<g id="plus-circle-" stroke="none" stroke-width="1" fill="none" fill-rule="evenodd">
  <mask id="mask-2" fill="white">
    <use xlink:href="#path-1"></use>
  </mask>
  <use id="Mask" fill="#000000" xlink:href="#path-1"></use>
</g>
</svg>
