<svg xmlns="http://www.w3.org/2000/svg" xmlns:xlink="http://www.w3.org/1999/xlink" width="24" height="24">
  <defs>
    <path id="success+circle-a" d="M20.0874369,8.68675849 C20.6613636,8.68675849 21.0439815,9.06859403 21.0439815,9.64134733 L21.0439815,10.5004773 C21.0439815,16.3234692 16.3569129,21 10.5219907,21 C4.6870686,21 0,16.3234692 0,10.5004773 C0,4.67748534 4.6870686,0 10.5219907,0 C12.0524621,0 13.487279,0.381835538 14.8264415,0.954588845 C15.3047138,1.14550661 15.4960227,1.71825992 15.3047138,2.19555434 C15.1134049,2.67284877 14.5394781,2.86376653 14.0612058,2.67284877 C12.9133523,2.19555434 11.7654987,1.90917769 10.5219907,1.90917769 C5.73926768,1.90917769 1.91308923,5.72753307 1.91308923,10.5004773 C1.91308923,15.2724669 5.73926768,19.0908223 10.5219907,19.0908223 C15.3047138,19.0908223 19.1308923,15.2724669 19.1308923,10.5004773 L19.1308923,9.64134733 C19.1308923,9.06859403 19.5135101,8.68675849 20.0874369,8.68675849 Z M21.713754,1.24067912 C22.0954153,1.62251466 22.0954153,2.19526797 21.713754,2.5771035 L11.1917633,13.0775808 C11.0004544,13.2684986 10.713491,13.3639575 10.5221821,13.3639575 C10.3308731,13.3639575 10.0439097,13.2684986 9.85260082,13.0775808 L6.98296698,10.2138143 C6.60034914,9.83197873 6.60034914,9.25922542 6.98296698,8.87738988 C7.36558483,8.49555434 7.9395116,8.49555434 8.32212944,8.87738988 L10.5221821,11.0729442 L20.3745916,1.24067912 C20.7572094,0.858843584 21.3311362,0.858843584 21.713754,1.24067912 Z"/>
  </defs>
  <g fill="none" fill-rule="evenodd" transform="translate(1 1)">
    <mask id="success+circle-b" fill="#fff">
      <use xlink:href="#success+circle-a"/>
    </mask>
    <use fill="#000" xlink:href="#success+circle-a"/>
    <g fill="#5A5A5A" mask="url(#success+circle-b)">
      <rect width="29" height="29"/>
    </g>
  </g>
</svg>
