<svg xmlns="http://www.w3.org/2000/svg" xmlns:xlink="http://www.w3.org/1999/xlink" width="24" height="24">
  <defs>
    <path id="x_o-a" d="M12,21 C7,21 3,17 3,12 C3,7 7,3 12,3 C17,3 21,7 21,12 C21,17 17,21 12,21 M12,1 C5.9,1 1,5.9 1,12 C1,18.1 5.9,23 12,23 C18.1,23 23,18.1 23,12 C23,5.9 18.1,1 12,1 M15.2591,8.29935 C14.8591,7.90035 14.2591,7.90035 13.8591,8.29935 L11.5591,10.59935 L9.2591,8.29935 C8.8591,7.90035 8.2591,7.90035 7.8591,8.29935 C7.4591,8.69935 7.4591,9.29935 7.8591,9.69935 L10.1581,11.99935 L7.8591,14.29935 C7.4591,14.69935 7.4591,15.29935 7.8591,15.69935 C8.0591,15.90035 8.2591,15.99935 8.5591,15.99935 C8.8591,15.99935 9.0591,15.90035 9.2591,15.69935 L11.5591,13.40035 L13.8591,15.69935 C14.0591,15.90035 14.3591,15.99935 14.5591,15.99935 C14.7591,15.99935 15.0591,15.90035 15.2591,15.69935 C15.6581,15.29935 15.6581,14.69935 15.2591,14.29935 L12.9591,11.99935 L15.2591,9.69935 C15.6581,9.29935 15.6581,8.69935 15.2591,8.29935"/>
  </defs>
  <g fill="none" fill-rule="evenodd">
    <use fill="#000" xlink:href="#x_o-a"/>
  </g>
</svg>
