<?xml version="1.0" encoding="UTF-8"?>
<svg width="121px" height="121px" viewBox="0 0 121 121" version="1.1" xmlns="http://www.w3.org/2000/svg">
    <!-- Generator: Sketch 48.2 (47327) - http://www.bohemiancoding.com/sketch -->
    <title>Combined Shape</title>
    <desc>Created with Sketch.</desc>
    <defs>
        <linearGradient x1="78.7695312%" y1="73.9666898%" x2="20.3450521%" y2="7.42778616%" id="linearGradient-1">
            <stop stop-color="#8C1DF3" offset="0%"></stop>
            <stop stop-color="#E77DE8" offset="100%"></stop>
        </linearGradient>
    </defs>
    <g id="VID_Deployment_5" stroke="none" stroke-width="1" fill="none" fill-rule="evenodd" transform="translate(-1065.000000, -322.000000)">
        <path d="M1125.5,443 C1092.08677,443 1065,415.913227 1065,382.5 C1065,349.086773 1092.08677,322 1125.5,322 C1158.91323,322 1186,349.086773 1186,382.5 C1186,415.913227 1158.91323,443 1125.5,443 Z M1125.5,439 C1156.70409,439 1182,413.704088 1182,382.5 C1182,351.295912 1156.70409,326 1125.5,326 C1094.29591,326 1069,351.295912 1069,382.5 C1069,413.704088 1094.29591,439 1125.5,439 Z M1131.83333,355 C1142.33333,355 1150.88889,363.576271 1150.88889,374.101695 C1156.72222,375.738983 1161,381.040678 1161,387.355932 C1161,394.918644 1154.93333,401 1147.38889,401 L1147,401 L1138.75556,401 L1131.75556,401 C1127.71111,401 1124.36667,397.647458 1124.36667,393.59322 L1124.36667,391.644068 L1124.36667,387.433898 L1124.36667,381.274576 L1119.62222,386.732203 C1118.92222,387.511864 1117.67778,387.589831 1116.9,386.888136 C1116.12222,386.186441 1116.04444,384.938983 1116.74444,384.159322 L1124.44444,375.271186 L1124.91111,374.725424 C1125.68889,373.867797 1127.08889,373.867797 1127.86667,374.725424 L1128.33333,375.349153 L1135.95556,384.081356 C1136.65556,384.861017 1136.57778,386.108475 1135.8,386.810169 C1135.02222,387.511864 1133.77778,387.433898 1133.07778,386.654237 L1128.33333,381.19661 L1128.33333,387.355932 L1128.33333,391.644068 L1128.33333,393.59322 C1128.33333,395.542373 1129.88889,397.101695 1131.83333,397.101695 L1133.77778,397.101695 L1147,397.101695 L1147.38889,397.101695 C1152.75556,397.101695 1157.11111,392.735593 1157.11111,387.355932 C1157.11111,382.911864 1154.15556,379.013559 1149.87778,377.844068 C1148.16667,377.376271 1147,375.816949 1147,374.101695 C1147,365.681356 1140.23333,358.898305 1131.83333,358.976271 C1126.93333,358.976271 1122.34444,361.315254 1119.54444,365.213559 C1118.45556,366.694915 1116.51111,367.240678 1114.8,366.461017 C1114.02222,366.071186 1113.24444,365.915254 1112.38889,365.915254 C1109.2,365.915254 1106.55556,368.566102 1106.55556,371.762712 C1106.55556,372.152542 1106.63333,372.620339 1106.71111,373.010169 C1107.17778,375.271186 1105.62222,377.376271 1103.36667,377.688136 C1098.54444,378.311864 1094.88889,382.444068 1094.88889,387.355932 C1094.88889,392.735593 1099.24444,397.101695 1104.61111,397.101695 L1105,397.101695 L1117.05556,397.101695 C1118.14444,397.101695 1119,397.959322 1119,399.050847 C1119,400.142373 1118.14444,401 1117.05556,401 L1104.61111,401 C1097.06667,401 1091,394.918644 1091,387.355932 C1091,381.19661 1095.04444,376.050847 1100.64444,374.257627 L1102.9,373.789831 L1102.66667,372.152542 L1102.66667,371.762712 C1102.66667,366.383051 1107.02222,362.016949 1112.38889,362.016949 C1113.86667,362.016949 1115.18889,362.328814 1116.43333,362.874576 C1119.85556,358.118644 1125.45556,355 1131.83333,355 Z" id="Combined-Shape" fill="url(#linearGradient-1)" fill-rule="nonzero"></path>
    </g>
</svg>
