<?xml version="1.0" encoding="UTF-8"?>
<svg width="14px" height="13px" viewBox="0 0 14 13" version="1.1" xmlns="http://www.w3.org/2000/svg" xmlns:xlink="http://www.w3.org/1999/xlink">
    <!-- Generator: Sketch 47.1 (45422) - http://www.bohemiancoding.com/sketch -->
    <title>Page 1 Copy 2</title>
    <desc>Created with Sketch.</desc>
    <defs>
        <polygon id="path-1" points="0 0 14 0 14 13 0 13"></polygon>
    </defs>
    <g id="vid-" stroke="none" stroke-width="1" fill="none" fill-rule="evenodd">
        <g id="Change-Managment" transform="translate(-1696.000000, -181.000000)">
            <g id="Page-1-Copy-2" transform="translate(1696.000000, 181.000000)">
                <mask id="mask-2" fill="white">
                    <use xlink:href="#path-1"></use>
                </mask>
                <g id="Clip-2"></g>
                <path d="M1.07738181,11.892665 C2.51371549,13.3691117 4.84984058,13.3691117 6.28634966,11.892665 L13.231757,4.75311054 C14.256081,3.70036026 14.256081,1.98141503 13.231757,0.928484448 C12.2076085,-0.124265836 10.5351892,-0.124265836 9.51104067,0.928484448 L2.56563328,8.06785861 C1.95366989,8.69691251 1.95366989,9.73361642 2.56563328,10.3628506 C3.17759667,10.9917242 4.18613479,10.9917242 4.79809819,10.3628506 L10.9992921,3.9882935 C11.2078403,3.78005124 11.2127514,3.4376685 11.0103422,3.22347646 C10.807933,3.00910412 10.4746769,3.00405582 10.2661288,3.21211779 C10.2624454,3.21590401 10.2589375,3.21969024 10.2552541,3.22347646 L4.05388475,9.59767299 C3.84130245,9.81619214 3.52242901,9.81619214 3.30984671,9.59767299 C3.09726442,9.37933413 3.09726442,9.0513751 3.30984671,8.83285595 L10.2550787,1.69348179 C10.8800215,1.05126625 11.8627762,1.05126625 12.487719,1.69348179 C13.1124865,2.33569732 13.1124865,3.34607797 12.487719,3.9882935 L5.54231162,11.1276677 C4.50518364,12.1937599 2.85854783,12.1937599 1.82141985,11.1276677 C0.78446726,10.0615755 0.78446726,8.36913378 1.82141985,7.30304157 L8.0227892,0.928484448 C8.23098655,0.720061888 8.2355469,0.377679153 8.03261149,0.163667407 C7.82985148,-0.050524636 7.4967708,-0.0550320443 7.28857345,0.153390516 C7.28524089,0.156816146 7.28190833,0.160241776 7.27857577,0.163667407 L1.07738181,6.53804423 C-0.35912727,8.01467119 -0.35912727,10.416038 1.07738181,11.892665" id="Fill-1" fill="#000000" mask="url(#mask-2)"></path>
            </g>
        </g>
    </g>
</svg>