<svg xmlns="http://www.w3.org/2000/svg" width="18" height="19" viewBox="0 0 18 19">
  <metadata><?xpacket begin="﻿" id="W5M0MpCehiHzreSzNTczkc9d"?>
<x:xmpmeta xmlns:x="adobe:ns:meta/" x:xmptk="Adobe XMP Core 5.6-c138 79.159824, 2016/09/14-01:09:01        ">
   <rdf:RDF xmlns:rdf="http://www.w3.org/1999/02/22-rdf-syntax-ns#">
      <rdf:Description rdf:about=""/>
   </rdf:RDF>
</x:xmpmeta>
                                                                                                    
                                                                                                    
                                                                                                    
                                                                                                    
                                                                                                    
                                                                                                    
                                                                                                    
                                                                                                    
                                                                                                    
                                                                                                    
                                                                                                    
                                                                                                    
                                                                                                    
                                                                                                    
                                                                                                    
                                                                                                    
                                                                                                    
                                                                                                    
                                                                                                    
                                                                                                    
                           
<?xpacket end="w"?></metadata>
<defs>
    <style>
      .cls-1 {
        fill: #646464;
        fill-rule: evenodd;
      }
    </style>
  </defs>
  <path id="Calendar" class="cls-1" d="M1332.5,326a0.5,0.5,0,0,1,.5.5v4a0.5,0.5,0,0,1-1,0v-4A0.5,0.5,0,0,1,1332.5,326Zm-7,0a0.5,0.5,0,0,1,.5.5v4a0.5,0.5,0,0,1-1,0v-4A0.5,0.5,0,0,1,1325.5,326Zm12.5,5.968c0-3.02-.93-3.968-4-3.968h-10c-3.07,0-4,.948-4,3.968V340c0,3.019.93,5,4,5h10c3.07,0,4-1.981,4-5v-8.032Zm-17.15,0c0-2.558.55-2.968,3.15-2.968h10c2.6,0,3.15.41,3.15,2.968L1337,333h-16ZM1337,340c0,2.558-.4,4-3,4h-10c-2.6,0-3-1.442-3-4v-6h16v6Zm-11.5-3h7a0.5,0.5,0,0,1,0,1h-7A0.5,0.5,0,0,1,1325.5,337Zm0,3h7a0.5,0.5,0,0,1,0,1h-7A0.5,0.5,0,0,1,1325.5,340Z" transform="translate(-1320 -326)"/>
</svg>
