<?xml version="1.0" encoding="UTF-8"?>
<!-- Svg Vector Icons : http://www.onlinewebfonts.com/icon -->
<!DOCTYPE svg PUBLIC "-//W3C//DTD SVG 1.1//EN" "http://www.w3.org/Graphics/SVG/1.1/DTD/svg11.dtd">
<svg version="1.1" xmlns="http://www.w3.org/2000/svg" xmlns:xlink="http://www.w3.org/1999/xlink" x="0px" y="0px" viewBox="0 0 1000 1000" enable-background="new 0 0 1000 1000" xml:space="preserve">
<metadata> Svg Vector Icons : http://www.onlinewebfonts.com/icon </metadata>
<g><g transform="translate(0.000000,511.000000) scale(0.100000,-0.100000)"><path d="M671,1004.4C51.1,734.4-96.2-88.1,388.7-573c687.4-693.5,1816.7-73.6,1638.8,896.1C1916.9,900,1223.4,1249.9,671,1004.4z"/><path d="M4599.1,1004.4C3979.2,734.4,3831.9-88.1,4316.8-573c687.4-693.5,1816.7-73.6,1638.8,896.1C5845,900,5151.5,1249.9,4599.1,1004.4z"/><path d="M8527.2,1004.4C7907.3,734.4,7760-88.1,8244.9-573c399-399,963.6-399,1362.5,0C10368.5,188.1,9515.4,1434,8527.2,1004.4z"/></g></g>
</svg>