<?xml version="1.0" encoding="UTF-8"?>
<svg width="94px" height="88px" viewBox="0 0 94 88" version="1.1" xmlns="http://www.w3.org/2000/svg" xmlns:xlink="http://www.w3.org/1999/xlink">
    <!-- Generator: Sketch 47.1 (45422) - http://www.bohemiancoding.com/sketch -->
    <title>Page 1 Copy 15</title>
    <desc>Created with Sketch.</desc>
    <defs>
        <polygon id="path-1" points="69 88 0 88 0 44.000352 0 0.000704 69 0.000704"></polygon>
    </defs>
    <g id="vid-" stroke="none" stroke-width="1" fill="none" fill-rule="evenodd">
        <g id="Test-Environments-NO-INFO" transform="translate(-1561.000000, -357.000000)">
            <g id="Page-1-Copy-15" transform="translate(1561.000000, 357.000000)">
                <g id="Group-3">
                    <mask id="mask-2" fill="white">
                        <use xlink:href="#path-1"></use>
                    </mask>
                    <g id="Clip-2"></g>
                    <path d="M65.4615385,84.480704 L3.53846154,84.480704 L3.53846154,8.800704 L12.3846154,8.800704 L12.3846154,12.320704 C12.3846154,13.292224 13.1754615,14.080704 14.1538462,14.080704 L54.8461538,14.080704 C55.8245385,14.080704 56.6153846,13.292224 56.6153846,12.320704 L56.6153846,8.800704 L65.4615385,8.800704 L65.4615385,84.480704 Z M15.9230769,3.520704 L53.0769231,3.520704 L53.0769231,5.280704 L53.0769231,8.800704 L53.0769231,10.560704 L15.9230769,10.560704 L15.9230769,8.800704 L15.9230769,5.280704 L15.9230769,3.520704 Z M67.2307692,5.280704 L56.6153846,5.280704 L56.6153846,1.760704 C56.6153846,0.787424 55.8245385,0.000704 54.8461538,0.000704 L14.1538462,0.000704 C13.1754615,0.000704 12.3846154,0.787424 12.3846154,1.760704 L12.3846154,5.280704 L1.76923077,5.280704 C0.790846154,5.280704 0,6.067424 0,7.040704 L0,86.240704 C0,87.213984 0.790846154,88.000704 1.76923077,88.000704 L67.2307692,88.000704 C68.2091538,88.000704 69,87.213984 69,86.240704 L69,7.040704 C69,6.067424 68.2091538,5.280704 67.2307692,5.280704 L67.2307692,5.280704 Z" id="Fill-1" fill="#191919" mask="url(#mask-2)"></path>
                </g>
                <path d="M90.6,67.2135388 L85.5,77.7785266 L80.4,67.2135388 L80.4,14.8041564 C80.4,11.8917415 82.6882,9.52166257 85.5,9.52166257 C88.3118,9.52166257 90.6,11.8917415 90.6,14.8041564 L90.6,67.2135388 Z M85.5,6 C80.8131,6 77,9.94954458 77,14.8041564 L77,67.6308559 C77,67.9037847 77.0612,68.1731919 77.1785,68.4179474 L83.8,82.1330623 L83.8,85.2391687 C83.8,86.2129084 84.5599,87 85.5,87 C86.4401,87 87.2,86.2129084 87.2,85.2391687 L87.2,82.1330623 L93.8215,68.4179474 C93.9388,68.1731919 94,67.9037847 94,67.6308559 L94,14.8041564 C94,9.94954458 90.1869,6 85.5,6 L85.5,6 Z" id="Fill-4" fill="#191919"></path>
                <path d="M14,25 C15.104,25 16,25.896 16,27 C16,28.104 15.104,29 14,29 C12.896,29 12,28.104 12,27 C12,25.896 12.896,25 14,25" id="Fill-6" fill="#191919"></path>
                <path d="M52.2631579,24.1818182 L22.7368421,24.1818182 C21.7763684,24.1818182 21,25.0351818 21,26.0909091 C21,27.1466364 21.7763684,28 22.7368421,28 L52.2631579,28 C53.2236316,28 54,27.1466364 54,26.0909091 C54,25.0351818 53.2236316,24.1818182 52.2631579,24.1818182 L52.2631579,7" id="Fill-8" fill="#191919"></path>
                <path d="M14,38 C15.104,38 16,38.896 16,40 C16,41.104 15.104,42 14,42 C12.896,42 12,41.104 12,40 C12,38.896 12.896,38 14,38" id="Fill-10" fill="#191919"></path>
                <path d="M52.2631579,38 L22.7368421,38 C21.7763684,38 21,38.894 21,40 C21,41.106 21.7763684,42 22.7368421,42 L52.2631579,42 C53.2236316,42 54,41.106 54,40 C54,38.894 53.2236316,38 52.2631579,38" id="Fill-12" fill="#191919"></path>
                <path d="M14,52 C15.104,52 16,52.896 16,54 C16,55.104 15.104,56 14,56 C12.896,56 12,55.104 12,54 C12,52.896 12.896,52 14,52" id="Fill-14" fill="#191919"></path>
                <path d="M52.2631579,52 L22.7368421,52 C21.7763684,52 21,52.894 21,54 C21,55.106 21.7763684,56 22.7368421,56 L52.2631579,56 C53.2236316,56 54,55.106 54,54 C54,52.894 53.2236316,52 52.2631579,52" id="Fill-16" fill="#191919"></path>
                <path d="M14,67 C15.104,67 16,67.894 16,69 C16,70.104 15.104,71 14,71 C12.896,71 12,70.104 12,69 C12,67.894 12.896,67 14,67" id="Fill-18" fill="#191919"></path>
                <path d="M52.2631579,67 L22.7368421,67 C21.7763684,67 21,67.894 21,69 C21,70.106 21.7763684,71 22.7368421,71 L52.2631579,71 C53.2236316,71 54,70.106 54,69 C54,67.894 53.2236316,67 52.2631579,67" id="Fill-20" fill="#191919"></path>
            </g>
        </g>
    </g>
</svg>