<?xml version="1.0" encoding="UTF-8"?>
<svg width="102px" height="83px" viewBox="0 0 102 83" version="1.1" xmlns="http://www.w3.org/2000/svg" xmlns:xlink="http://www.w3.org/1999/xlink">
    <!-- Generator: Sketch 47.1 (45422) - http://www.bohemiancoding.com/sketch -->
    <title>Group 6</title>
    <desc>Created with Sketch.</desc>
    <defs></defs>
    <g id="vid-" stroke="none" stroke-width="1" fill="none" fill-rule="evenodd">
        <g id="Test-Environments-ERROR" transform="translate(-770.000000, -360.000000)" fill="#191919">
            <g id="Page-1-Copy-15" transform="translate(770.000000, 360.000000)">
                <g id="Group-6">
                    <path d="M84.3719292,80.6944444 L93.618168,80.6944444 L93.618168,71.4722222 L84.3719292,71.4722222 L84.3719292,80.6944444 Z M82.0603695,69.1666667 L82.0603695,74.9305556 L18.3768996,74.9305556 C9.59297277,74.9305556 2.3115597,67.7833333 2.3115597,58.9069444 L2.3115597,58.6763889 C2.3115597,49.8 9.59297277,42.6527778 18.3768996,42.6527778 L34.6733955,42.6527778 L34.6733955,40.3472222 L18.3768996,40.3472222 C8.32161493,40.3472222 0,48.5319444 0,58.6763889 L0,58.9069444 C0,69.0513889 8.32161493,77.2361111 18.3768996,77.2361111 L82.0603695,77.2361111 L82.0603695,83 L95.9297277,83 L95.9297277,80.6944444 L95.9297277,78.3888889 L95.9297277,73.7777778 L95.9297277,71.4722222 L95.9297277,69.1666667 L82.0603695,69.1666667 Z" id="Fill-3"></path>
                    <path d="M9.24623881,11.5277778 L18.4924776,11.5277778 L18.4924776,2.30555556 L9.24623881,2.30555556 L9.24623881,11.5277778 Z M83.5628833,5.76388889 L20.8040373,5.76388889 L20.8040373,4.61111111 L20.8040373,2.30555556 L20.8040373,0 L6.93467911,0 L6.93467911,5.76388889 L6.93467911,8.06944444 L6.93467911,13.8333333 L20.8040373,13.8333333 L20.8040373,11.5277778 L20.8040373,9.22222222 L20.8040373,8.06944444 L83.5628833,8.06944444 C92.4623881,8.06944444 99.6282232,15.2166667 99.6282232,24.0930556 L99.6282232,24.3236111 C99.6282232,33.2 92.4623881,40.3472222 83.5628833,40.3472222 L63.5678918,40.3472222 L63.5678918,42.6527778 L83.5628833,42.6527778 C93.733746,42.6527778 101.939783,34.4680556 101.939783,24.3236111 L101.939783,24.0930556 C101.939783,13.9486111 93.618168,5.76388889 83.5628833,5.76388889 L83.5628833,5.76388889 Z" id="Fill-5"></path>
                </g>
            </g>
        </g>
    </g>
</svg>