<?xml version="1.0" encoding="UTF-8"?>
<svg width="36px" height="32px" viewBox="0 0 36 32" version="1.1" xmlns="http://www.w3.org/2000/svg" xmlns:xlink="http://www.w3.org/1999/xlink">
    <!-- Generator: Sketch 46.2 (44496) - http://www.bohemiancoding.com/sketch -->
    <title>Page 1</title>
    <desc>Created with Sketch.</desc>
    <defs></defs>
    <g id="vid-" stroke="none" stroke-width="1" fill="none" fill-rule="evenodd">
        <g id="Artboard-Copy-2" transform="translate(-127.000000, -48.000000)" fill="#000000">
            <g id="Page-1" transform="translate(127.000000, 47.000000)">
                <g id="Group-3" transform="translate(9.000000, 0.338800)">
                    <path d="M0.7181,3.0151 C7.4501,-1.3179 16.5391,0.4801 21.2271,7.1761 C24.7951,12.2711 24.8861,18.9481 21.6461,24.0301 L25.6361,22.6831 L26.1031,24.1001 L19.6521,26.2391 L17.6351,20.0531 L19.0421,19.6001 L20.2741,23.4091 C23.3211,18.8051 23.2811,12.6811 20.0191,8.0221 C15.7991,1.9951 7.6211,0.3691 1.5531,4.2531 L0.7181,3.0151 Z" id="Fill-1"></path>
                </g>
                <g id="Group-6" transform="translate(0.000000, 6.338800)">
                    <path d="M25.0135,23.7841 C18.2065,27.9991 9.1505,26.0421 4.5795,19.2651 C1.1015,14.1091 1.1275,7.4321 4.4545,2.4071 L0.4415,3.6831 L-0.0005,2.2591 L6.4875,0.2331 L8.3955,6.4531 L6.9825,6.8811 L5.8165,3.0521 C2.6885,7.6021 2.6225,13.7261 5.8035,18.4401 C9.9175,24.5411 18.0655,26.3091 24.2005,22.5311 L25.0135,23.7841 Z" id="Fill-4"></path>
                </g>
            </g>
        </g>
    </g>
</svg>