<?xml version="1.0" encoding="utf-8"?>
<!-- Generator: Adobe Illustrator 21.1.0, SVG Export Plug-In . SVG Version: 6.00 Build 0)  -->
<svg version="1.1" id="Layer_1" xmlns="http://www.w3.org/2000/svg" xmlns:xlink="http://www.w3.org/1999/xlink" x="0px" y="0px"
	 viewBox="0 0 17 17" style="enable-background:new 0 0 17 17;" xml:space="preserve">
<title>Fill 1</title>
<desc>Created with Sketch.</desc>
<g id="vid-">
	<g id="Artboard-Copy-2" transform="translate(-197.000000, -61.000000)">
		<path id="Fill-1" d="M204,73.9c-1.6,0-3-0.6-4.2-1.7c-1.1-1.1-1.7-2.6-1.7-4.2s0.6-3,1.7-4.2c1.1-1.1,2.6-1.7,4.2-1.7
			c1.6,0,3,0.6,4.2,1.7c1.1,1.1,1.7,2.6,1.7,4.2s-0.6,3-1.7,4.2C207,73.3,205.6,73.9,204,73.9 M213.8,77.1l-4.5-4.5
			c1.1-1.3,1.7-2.9,1.7-4.5c0-1.9-0.7-3.6-2-4.9c-1.3-1.3-3.1-2-4.9-2c-1.9,0-3.6,0.7-4.9,2c-1.3,1.3-2,3.1-2,4.9
			c0,1.9,0.7,3.6,2,4.9c1.3,1.3,3.1,2,4.9,2c1.7,0,3.3-0.6,4.5-1.7l4.5,4.5c0.1,0.1,0.3,0.2,0.4,0.2c0.1,0,0.3-0.1,0.4-0.2
			C214.1,77.6,214.1,77.3,213.8,77.1"/>
	</g>
</g>
</svg>
