<?xml version="1.0" encoding="utf-8"?>
<!-- Generator: Adobe Illustrator 21.1.0, SVG Export Plug-In . SVG Version: 6.00 Build 0)  -->
<svg version="1.1" id="Layer_1" xmlns="http://www.w3.org/2000/svg" xmlns:xlink="http://www.w3.org/1999/xlink" x="0px" y="0px"
	 viewBox="0 0 9 13" style="enable-background:new 0 0 9 13;" xml:space="preserve">
<title>15</title>
<desc>Created with Sketch.</desc>
<g id="vid-">
	<g id="Artboard-Copy-2" transform="translate(-53.000000, -61.000000)">
		<path id="_x31_5" d="M58.4,72.3v-8.2l2.1,2.1c0.2,0.2,0.4,0.3,0.6,0.3c0.2,0,0.5-0.1,0.6-0.3c0.4-0.4,0.4-0.9,0-1.3l-3.6-3.6
			c-0.4-0.4-0.9-0.4-1.3,0l-3.6,3.6c-0.4,0.4-0.4,0.9,0,1.3c0.4,0.4,0.9,0.4,1.3,0l2.1-2.1v8.2c0,0.5,0.4,0.9,0.9,0.9
			C58,73.2,58.4,72.8,58.4,72.3z"/>
	</g>
</g>
</svg>
