<?xml version="1.0" encoding="UTF-8"?>
<svg width="11px" height="11px" viewBox="0 0 11 11" version="1.1" xmlns="http://www.w3.org/2000/svg" xmlns:xlink="http://www.w3.org/1999/xlink">
    <!-- Generator: Sketch 46.2 (44496) - http://www.bohemiancoding.com/sketch -->
    <title>add</title>
    <desc>Created with Sketch.</desc>
    <defs></defs>
    <g id="vid-" stroke="none" stroke-width="1" fill="none" fill-rule="evenodd">
        <g id="Change-Managment" transform="translate(-238.000000, -234.000000)">
            <g id="fab-copy" transform="translate(234.000000, 230.000000)">
                <g id="add">
                    <polygon id="bounds" points="19 0 0 0 0 19 19 19"></polygon>
                    <polygon id="Shape" fill="#5A5A5A" points="10.2857143 8.71428571 10.2857143 4 8.71428571 4 8.71428571 8.71428571 4 8.71428571 4 10.2857143 8.71428571 10.2857143 8.71428571 15 10.2857143 15 10.2857143 10.2857143 15 10.2857143 15 8.71428571"></polygon>
                    <polygon id="Shape" fill="#323943" points="10.2857143 8.71428571 10.2857143 4 8.71428571 4 8.71428571 8.71428571 4 8.71428571 4 10.2857143 8.71428571 10.2857143 8.71428571 15 10.2857143 15 10.2857143 10.2857143 15 10.2857143 15 8.71428571"></polygon>
                </g>
            </g>
        </g>
    </g>
</svg>