<?xml version="1.0" encoding="UTF-8"?>
<svg width="36px" height="33px" viewBox="0 0 36 33" version="1.1" xmlns="http://www.w3.org/2000/svg" xmlns:xlink="http://www.w3.org/1999/xlink">
    <!-- Generator: Sketch 46.2 (44496) - http://www.bohemiancoding.com/sketch -->
    <title>Group 4</title>
    <desc>Created with Sketch.</desc>
    <defs></defs>
    <g id="vid-" stroke="none" stroke-width="1" fill="none" fill-rule="evenodd">
        <g id="Change-Managment" transform="translate(-1544.000000, -167.000000)" fill="#000000">
            <g id="Group-4" transform="translate(1539.000000, 161.000000)">
                <path d="M46.8694358,24.175791 C45.9994856,16.2172262 38.8825787,10.2854851 30.7284339,10.8556784 C24.5237875,11.2895496 19.2775923,15.4204556 17.3664133,21.1365857 L15.9019754,17.1882236 L14.5076414,17.7168536 L16.9050052,24.0765655 L22.9818228,21.7507351 L22.4483333,20.3733764 L18.7132068,21.8122285 C20.3736452,16.5462395 25.1585967,12.7241599 30.8313525,12.3274822 C38.1718767,11.8141827 44.5815219,17.1455631 45.3812187,24.3059932 L46.8694358,24.175791 Z" id="Combined-Shape" transform="translate(30.688539, 17.561891) scale(-1, 1) rotate(-51.000000) translate(-30.688539, -17.561891) "></path>
                <path d="M31.668351,33.8536511 C30.7984008,25.8950863 23.6814939,19.9633451 15.5273491,20.5335385 C9.32270268,20.9674096 4.07650747,25.0983156 2.16532847,30.8144457 L0.700890606,26.8660837 L-0.69344337,27.3947136 L1.70392039,33.7544255 L7.78073796,31.4285952 L7.24724852,30.0512364 L3.512122,31.4900885 C5.17256042,26.2240996 9.95751192,22.4020199 15.6302677,22.0053422 C22.9707919,21.4920428 29.3804371,26.8234231 30.1801339,33.9838532 L31.668351,33.8536511 Z" id="Combined-Shape-Copy-2" transform="translate(15.487454, 27.239751) scale(-1, 1) rotate(-232.000000) translate(-15.487454, -27.239751) "></path>
            </g>
        </g>
    </g>
</svg>